<svg version="1.0" xmlns="http://www.w3.org/2000/svg"
 width="191.000000pt" height="186.000000pt" viewBox="0 0 191.000000 186.000000"
 preserveAspectRatio="xMidYMid meet">

<g transform="translate(0.000000,186.000000) scale(0.100000,-0.100000)"
fill="blue" stroke="none">
<path d="M910 1821 c-14 -5 -61 -27 -105 -49 -44 -22 -132 -64 -195 -95 -322
-153 -390 -188 -401 -209 -6 -12 -25 -78 -40 -147 -52 -224 -80 -344 -104
-446 -33 -142 -37 -177 -26 -208 6 -15 117 -160 247 -322 175 -217 245 -297
267 -304 19 -7 169 -11 406 -11 339 0 379 2 409 18 41 22 498 590 507 630 6
30 0 66 -60 322 -19 85 -47 207 -61 270 -14 63 -33 137 -42 165 -20 60 45 24
-604 335 -112 53 -156 65 -198 51z m75 -237 c12 -13 14 -28 9 -75 -10 -92 -5
-103 66 -117 70 -15 182 -70 226 -113 38 -36 59 -31 121 31 46 44 77 50 97 18
15 -25 0 -46 -60 -85 -64 -43 -71 -63 -39 -116 31 -54 55 -154 55 -234 0 -73
18 -93 85 -93 71 0 115 -39 85 -75 -17 -20 -45 -19 -106 4 -28 11 -60 18 -70
15 -11 -3 -29 -28 -44 -62 -29 -67 -105 -161 -154 -192 -46 -28 -47 -60 -5
-123 33 -50 35 -83 6 -101 -27 -17 -49 3 -74 70 -33 85 -39 89 -103 70 -68
-20 -169 -20 -245 -1 -70 19 -75 16 -108 -69 -25 -67 -47 -87 -75 -70 -28 18
-26 51 7 101 39 59 40 95 4 119 -55 35 -131 125 -159 188 -34 75 -49 82 -121
54 -58 -22 -87 -23 -103 -3 -30 36 14 75 85 75 67 0 85 20 85 93 0 76 22 172
54 235 13 27 21 55 17 65 -3 9 -28 32 -55 50 -60 39 -75 60 -60 85 20 31 50
26 92 -17 21 -22 52 -45 67 -51 25 -10 32 -7 59 18 65 62 195 122 263 122 29
0 38 32 29 109 -7 61 6 91 39 91 7 0 21 -7 30 -16z"/>
<path d="M833 1275 c-47 -14 -124 -57 -141 -78 -9 -11 3 -24 65 -68 42 -30 83
-58 91 -63 27 -16 40 17 47 122 7 114 10 110 -62 87z"/>
<path d="M1015 1189 c7 -106 20 -139 47 -123 8 5 49 34 92 64 l77 55 -28 23
c-36 29 -119 69 -162 77 l-33 7 7 -103z"/>
<path d="M590 1047 c-13 -29 -25 -82 -28 -118 l-5 -66 94 24 c99 26 119 36
119 60 0 13 -73 86 -134 134 l-24 19 -22 -53z"/>
<path d="M1218 1034 c-75 -64 -92 -94 -65 -111 6 -4 54 -20 106 -34 l94 -27
-5 67 c-3 41 -15 88 -29 120 l-24 52 -77 -67z"/>
<path d="M908 935 c-40 -54 9 -115 73 -93 59 20 38 117 -26 117 -20 0 -36 -8
-47 -24z"/>
<path d="M668 773 c-43 -8 -78 -19 -78 -25 0 -30 116 -178 140 -178 8 0 48 88
70 151 25 72 8 79 -132 52z"/>
<path d="M1107 783 c-4 -3 -7 -14 -7 -24 0 -22 70 -189 79 -189 26 0 141 145
141 178 0 5 -40 17 -89 26 -99 18 -115 19 -124 9z"/>
<path d="M927 688 c-8 -13 -33 -56 -55 -95 l-41 -73 27 -7 c35 -10 159 -10
194 0 l27 7 -52 92 c-29 51 -60 94 -69 96 -9 2 -23 -7 -31 -20z"/>
</g>
</svg>
