<?xml version="1.0" standalone="no"?>
<!DOCTYPE svg PUBLIC "-//W3C//DTD SVG 20010904//EN"
 "http://www.w3.org/TR/2001/REC-SVG-20010904/DTD/svg10.dtd">
<svg version="1.0" xmlns="http://www.w3.org/2000/svg"
 width="454.000000pt" height="512.000000pt" viewBox="0 0 454.000000 512.000000"
 preserveAspectRatio="xMidYMid meet">

<g transform="translate(0.000000,512.000000) scale(0.100000,-0.100000)"
fill="#90EE90" stroke="none">
<path d="M1 4388 c1 -476 4 -716 10 -685 24 121 96 220 207 285 165 96 269
156 297 172 122 70 233 135 310 180 50 29 106 61 125 72 77 44 367 212 390
226 14 9 39 24 55 33 71 38 655 377 670 388 20 15 101 43 145 51 25 4 -462 8
-1082 9 l-1128 1 1 -732z"/>
<path d="M2330 5110 c52 -9 124 -36 160 -60 14 -9 63 -38 110 -65 47 -26 99
-55 115 -65 76 -45 228 -133 304 -177 47 -26 104 -59 127 -73 126 -73 229
-133 319 -185 140 -81 146 -84 274 -159 62 -36 115 -66 117 -66 1 0 39 -22 84
-50 45 -27 83 -50 84 -50 2 0 55 -30 117 -67 63 -36 144 -84 181 -105 109 -64
173 -150 204 -273 10 -41 12 79 13 678 l1 727 -1127 -1 c-621 -1 -1108 -5
-1083 -9z"/>
<path d="M2185 4758 c-27 -17 -63 -39 -80 -48 -38 -22 -217 -125 -270 -155
-22 -13 -80 -46 -130 -75 -49 -29 -106 -62 -125 -72 -298 -170 -1219 -705
-1232 -716 -17 -14 -18 -81 -18 -1127 0 -874 3 -1114 12 -1126 13 -15 36 -31
100 -68 83 -47 232 -134 329 -189 238 -139 365 -148 487 -38 76 69 72 -3 72
1226 0 931 2 1099 14 1116 13 17 27 19 161 19 119 0 148 -3 155 -15 6 -9 9
-443 7 -1175 l-2 -1160 -27 -72 c-37 -101 -71 -155 -135 -213 -101 -93 -214
-130 -393 -130 -134 0 -258 33 -401 107 -125 65 -543 311 -571 337 -68 61
-112 141 -128 236 -4 25 -8 -285 -9 -687 l-1 -733 2270 0 2270 0 -1 728 c0
400 -4 716 -6 702 -7 -49 -46 -145 -71 -180 -50 -69 -74 -87 -257 -192 -71
-42 -229 -133 -350 -203 -121 -70 -233 -135 -250 -145 -16 -9 -75 -43 -130
-75 -324 -188 -801 -464 -870 -503 -44 -25 -91 -53 -105 -62 -44 -31 -158 -60
-231 -60 -92 0 -152 24 -334 133 -82 50 -163 98 -180 107 -176 100 -355 211
-355 220 0 13 24 27 80 44 30 10 99 40 153 67 116 58 66 73 387 -119 123 -74
234 -134 245 -134 17 0 80 34 344 186 29 17 70 40 90 52 20 11 77 45 126 74
50 29 108 63 130 75 22 13 81 47 130 75 50 29 149 87 220 128 201 115 317 183
350 202 17 10 127 74 245 142 118 68 234 137 258 151 l42 27 0 1119 c0 1052
-1 1119 -17 1133 -17 14 -89 58 -173 106 -19 11 -80 46 -135 77 -55 32 -113
65 -130 75 -16 9 -75 43 -130 75 -116 67 -383 221 -535 308 -58 33 -118 68
-135 78 -46 27 -205 119 -250 144 -22 12 -80 46 -130 75 -218 128 -279 160
-304 159 -14 0 -48 -14 -76 -31z m845 -1203 c207 -23 361 -83 471 -183 106
-97 165 -209 192 -367 14 -79 14 -93 1 -112 -14 -22 -20 -23 -159 -23 -142 0
-146 1 -154 23 -5 12 -21 54 -36 94 -46 125 -109 184 -240 228 -68 23 -100 27
-244 32 -263 8 -406 -18 -499 -92 -45 -36 -73 -102 -73 -171 0 -78 22 -112 98
-150 61 -30 258 -76 383 -89 309 -33 621 -101 748 -162 105 -50 188 -134 227
-229 27 -64 29 -78 30 -204 0 -122 -3 -142 -27 -208 -108 -291 -417 -442 -908
-442 -600 0 -942 219 -974 621 -8 113 -8 113 161 117 102 2 142 0 155 -10 11
-8 24 -43 33 -88 33 -156 112 -237 280 -285 76 -22 117 -27 270 -32 459 -15
654 74 658 298 1 58 -3 73 -27 107 -57 82 -228 130 -626 177 -438 51 -641 124
-752 270 -103 136 -116 368 -33 541 134 276 518 400 1045 339z"/>
</g>
</svg>
